ffmpeg started on 2025-06-15 at 19:55:34
Report written to "D:\Convert\FFMetrics\reports\ssim_report-6.txt"
Log level: 32
Command line:
ffmpeg -hide_banner -nostdin -i "G:\\\xc0\xed\xe8\xec\xe5\\[\xd2\xee\xef]\\\xd1\xea\xe0\xe7\xe0\xed\xe8\xe5 \xee\xe1 \xee\xe1\xf0\xf3\xf7\xe0\xeb\xfc\xed\xfb\xf5 \xea\xee\xeb\xfc\xf6\xe0\xf5\\[DC] Kekkon Yubiwa Monogatari - 08_Telegram_HEVC.mkv" -i "G:\\\xc0\xed\xe8\xec\xe5\\[\xd2\xee\xef]\\\xd1\xea\xe0\xe7\xe0\xed\xe8\xe5 \xee\xe1 \xee\xe1\xf0\xf3\xf7\xe0\xeb\xfc\xed\xfb\xf5 \xea\xee\xeb\xfc\xf6\xe0\xf5\\[DC] Kekkon Yubiwa Monogatari - 08_Telegram.mp4" -lavfi "[0:v]settb=AVTB,setpts=PTS-STARTPTS,format=pix_fmts=yuv420p10,fps=24000/1001,scale=1920:1080:flags=bicubic[main];[1:v]settb=AVTB,setpts=PTS-STARTPTS,format=pix_fmts=yuv420p,fps=24000/1001,scale=1920:1080:flags=bicubic[ref];[main][ref]ssim=eof_action=endall:stats_file='D\\:/Convert/FFMetrics/logs/ssim_logfile-6.txt'" -f null -
Input #0, matroska,webm, from 'G:\Аниме\[Топ]\Сказание об обручальных кольцах\[DC] Kekkon Yubiwa Monogatari - 08_Telegram_HEVC.mkv':
  Metadata:
    COMPATIBLE_BRANDS: isomiso2avc1mp41
    MAJOR_BRAND     : isom
    MINOR_VERSION   : 512
    ENCODER         : Lavf61.7.100
  Duration: 00:23:46.99, start: -0.021000, bitrate: 1368 kb/s
  Stream #0:0: Video: hevc (Main 10), yuv420p10le(tv, bt709, progressive), 1920x1080 [SAR 1:1 DAR 16:9], 23.98 fps, 23.98 tbr, 1k tbn (default)
      Metadata:
        HANDLER_NAME    : VideoHandler
        VENDOR_ID       : [0][0][0][0]
        ENCODER         : Lavc61.19.100 libx265
        BPS             : 1170787
        DURATION        : 00:23:43.964708333
        NUMBER_OF_FRAMES: 34141
        NUMBER_OF_BYTES : 208394933
        _STATISTICS_WRITING_APP: mkvpropedit v66.0.0 ('Josie') 64-bit
        _STATISTICS_WRITING_DATE_UTC: 2025-06-15 15:24:48
        _STATISTICS_TAGS: BPS DURATION NUMBER_OF_FRAMES NUMBER_OF_BYTES
  Stream #0:1: Audio: aac (LC), 48000 Hz, stereo, fltp (default)
      Metadata:
        HANDLER_NAME    : SoundHandler
        VENDOR_ID       : [0][0][0][0]
        ENCODER         : Lavc61.19.100 aac
        BPS             : 196032
        DURATION        : 00:23:46.986000000
        NUMBER_OF_FRAMES: 66891
        NUMBER_OF_BYTES : 34966867
        _STATISTICS_WRITING_APP: mkvpropedit v66.0.0 ('Josie') 64-bit
        _STATISTICS_WRITING_DATE_UTC: 2025-06-15 15:24:48
        _STATISTICS_TAGS: BPS DURATION NUMBER_OF_FRAMES NUMBER_OF_BYTES
Input #1, mov,mp4,m4a,3gp,3g2,mj2, from 'G:\Аниме\[Топ]\Сказание об обручальных кольцах\[DC] Kekkon Yubiwa Monogatari - 08_Telegram.mp4':
  Metadata:
    major_brand     : isom
    minor_version   : 512
    compatible_brands: isomiso2avc1mp41
    encoder         : Lavf60.16.100
  Duration: 00:23:46.96, start: 0.000000, bitrate: 3889 kb/s
  Stream #1:0[0x1](und): Video: h264 (High) (avc1 / 0x31637661), yuv420p(tv, bt709, progressive), 1920x1080 [SAR 1:1 DAR 16:9], 3749 kb/s, 23.98 fps, 23.98 tbr, 24k tbn (default)
      Metadata:
        handler_name    : VideoHandler
        vendor_id       : [0][0][0][0]
        encoder         : Lavc60.31.102 h264_qsv
  Stream #1:1[0x2](und): Audio: aac (HE-AACv2) (mp4a / 0x6134706D), 48000 Hz, stereo, fltp, 144 kb/s (default)
      Metadata:
        handler_name    : SoundHandler
        vendor_id       : [0][0][0][0]
Stream mapping:
  Stream #0:0 (hevc) -> settb:default
  Stream #1:0 (h264) -> settb:default
  ssim:default -> Stream #0:0 (wrapped_avframe)
  Stream #0:1 -> #0:1 (aac (native) -> pcm_s16le (native))
Output #0, null, to 'pipe:':
  Metadata:
    COMPATIBLE_BRANDS: isomiso2avc1mp41
    MAJOR_BRAND     : isom
    MINOR_VERSION   : 512
    encoder         : Lavf61.7.100
  Stream #0:0: Video: wrapped_avframe, yuv420p10le(tv, bt709, progressive), 1920x1080 [SAR 1:1 DAR 16:9], q=2-31, 200 kb/s, 23.98 fps, 23.98 tbn
      Metadata:
        encoder         : Lavc61.19.100 wrapped_avframe
  Stream #0:1: Audio: pcm_s16le, 48000 Hz, stereo, s16, 1536 kb/s (default)
      Metadata:
        HANDLER_NAME    : SoundHandler
        VENDOR_ID       : [0][0][0][0]
        _STATISTICS_TAGS: BPS DURATION NUMBER_OF_FRAMES NUMBER_OF_BYTES
        BPS             : 196032
        DURATION        : 00:23:46.986000000
        NUMBER_OF_FRAMES: 66891
        NUMBER_OF_BYTES : 34966867
        _STATISTICS_WRITING_APP: mkvpropedit v66.0.0 ('Josie') 64-bit
        _STATISTICS_WRITING_DATE_UTC: 2025-06-15 15:24:48
        encoder         : Lavc61.19.100 pcm_s16le
frame=  186 fps=0.0 q=-0.0 size=N/A time=00:00:07.75 bitrate=N/A speed=15.1x    frame=  428 fps=417 q=-0.0 size=N/A time=00:00:17.85 bitrate=N/A speed=17.4x    frame=  709 fps=457 q=-0.0 size=N/A time=00:00:29.57 bitrate=N/A speed=19.1x    frame=  965 fps=468 q=-0.0 size=N/A time=00:00:40.24 bitrate=N/A speed=19.5x    frame= 1228 fps=478 q=-0.0 size=N/A time=00:00:51.21 bitrate=N/A speed=19.9x    frame= 1501 fps=485 q=-0.0 size=N/A time=00:01:02.60 bitrate=N/A speed=20.2x    frame= 1758 fps=487 q=-0.0 size=N/A time=00:01:13.32 bitrate=N/A speed=20.3x    frame= 2002 fps=486 q=-0.0 size=N/A time=00:01:23.50 bitrate=N/A speed=20.3x    frame= 2260 fps=487 q=-0.0 size=N/A time=00:01:34.26 bitrate=N/A speed=20.3x    frame= 2491 fps=483 q=-0.0 size=N/A time=00:01:43.89 bitrate=N/A speed=20.2x    frame= 2702 fps=476 q=-0.0 size=N/A time=00:01:52.69 bitrate=N/A speed=19.8x    frame= 2878 fps=466 q=-0.0 size=N/A time=00:02:00.03 bitrate=N/A speed=19.4x    frame= 3078 fps=459 q=-0.0 size=N/A time=00:02:08.37 bitrate=N/A speed=19.1x    frame= 3296 fps=457 q=-0.0 size=N/A time=00:02:17.47 bitrate=N/A speed=19.1x    frame= 3525 fps=456 q=-0.0 size=N/A time=00:02:27.02 bitrate=N/A speed=  19x    frame= 3670 fps=445 q=-0.0 size=N/A time=00:02:33.06 bitrate=N/A speed=18.5x    frame= 3892 fps=444 q=-0.0 size=N/A time=00:02:42.32 bitrate=N/A speed=18.5x    frame= 4065 fps=438 q=-0.0 size=N/A time=00:02:49.54 bitrate=N/A speed=18.3x    frame= 4216 fps=430 q=-0.0 size=N/A time=00:02:55.84 bitrate=N/A speed=17.9x    frame= 4427 fps=429 q=-0.0 size=N/A time=00:03:04.64 bitrate=N/A speed=17.9x    frame= 4631 fps=427 q=-0.0 size=N/A time=00:03:13.15 bitrate=N/A speed=17.8x    frame= 4844 fps=427 q=-0.0 size=N/A time=00:03:22.03 bitrate=N/A speed=17.8x    frame= 5085 fps=429 q=-0.0 size=N/A time=00:03:32.08 bitrate=N/A speed=17.9x    frame= 5335 fps=431 q=-0.0 size=N/A time=00:03:42.51 bitrate=N/A speed=  18x    frame= 5584 fps=433 q=-0.0 size=N/A time=00:03:52.89 bitrate=N/A speed=18.1x    frame= 5839 fps=435 q=-0.0 size=N/A time=00:04:03.53 bitrate=N/A speed=18.2x    frame= 6102 fps=438 q=-0.0 size=N/A time=00:04:14.50 bitrate=N/A speed=18.3x    frame= 6314 fps=437 q=-0.0 size=N/A time=00:04:23.34 bitrate=N/A speed=18.2x    frame= 6549 fps=438 q=-0.0 size=N/A time=00:04:33.14 bitrate=N/A speed=18.3x    frame= 6805 fps=440 q=-0.0 size=N/A time=00:04:43.82 bitrate=N/A speed=18.4x    frame= 7052 fps=441 q=-0.0 size=N/A time=00:04:54.12 bitrate=N/A speed=18.4x    frame= 7290 fps=442 q=-0.0 size=N/A time=00:05:04.05 bitrate=N/A speed=18.4x    frame= 7503 fps=441 q=-0.0 size=N/A time=00:05:12.93 bitrate=N/A speed=18.4x    frame= 7712 fps=440 q=-0.0 size=N/A time=00:05:21.65 bitrate=N/A speed=18.3x    frame= 7971 fps=442 q=-0.0 size=N/A time=00:05:32.45 bitrate=N/A speed=18.4x    frame= 8220 fps=443 q=-0.0 size=N/A time=00:05:42.84 bitrate=N/A speed=18.5x    frame= 8429 fps=442 q=-0.0 size=N/A time=00:05:51.55 bitrate=N/A speed=18.4x    frame= 8662 fps=442 q=-0.0 size=N/A time=00:06:01.27 bitrate=N/A speed=18.4x    frame= 8915 fps=443 q=-0.0 size=N/A time=00:06:11.82 bitrate=N/A speed=18.5x    frame= 9155 fps=444 q=-0.0 size=N/A time=00:06:21.83 bitrate=N/A speed=18.5x    frame= 9396 fps=445 q=-0.0 size=N/A time=00:06:31.89 bitrate=N/A speed=18.5x    frame= 9641 fps=445 q=-0.0 size=N/A time=00:06:42.11 bitrate=N/A speed=18.6x    frame= 9880 fps=445 q=-0.0 size=N/A time=00:06:52.07 bitrate=N/A speed=18.6x    frame=10110 fps=445 q=-0.0 size=N/A time=00:07:01.67 bitrate=N/A speed=18.6x    frame=10330 fps=445 q=-0.0 size=N/A time=00:07:10.84 bitrate=N/A speed=18.6x    frame=10532 fps=444 q=-0.0 size=N/A time=00:07:19.27 bitrate=N/A speed=18.5x    frame=10755 fps=444 q=-0.0 size=N/A time=00:07:28.57 bitrate=N/A speed=18.5x    frame=11017 fps=445 q=-0.0 size=N/A time=00:07:39.50 bitrate=N/A speed=18.6x    frame=11277 fps=446 q=-0.0 size=N/A time=00:07:50.34 bitrate=N/A speed=18.6x    frame=11514 fps=447 q=-0.0 size=N/A time=00:08:00.22 bitrate=N/A speed=18.6x    frame=11734 fps=446 q=-0.0 size=N/A time=00:08:09.40 bitrate=N/A speed=18.6x    frame=11917 fps=445 q=-0.0 size=N/A time=00:08:17.03 bitrate=N/A speed=18.5x    frame=12129 fps=444 q=-0.0 size=N/A time=00:08:25.88 bitrate=N/A speed=18.5x    frame=12325 fps=443 q=-0.0 size=N/A time=00:08:34.05 bitrate=N/A speed=18.5x    frame=12508 fps=441 q=-0.0 size=N/A time=00:08:41.68 bitrate=N/A speed=18.4x    frame=12732 fps=441 q=-0.0 size=N/A time=00:08:51.03 bitrate=N/A speed=18.4x    frame=12998 fps=442 q=-0.0 size=N/A time=00:09:02.12 bitrate=N/A speed=18.4x    frame=13204 fps=442 q=-0.0 size=N/A time=00:09:10.71 bitrate=N/A speed=18.4x    frame=13421 fps=441 q=-0.0 size=N/A time=00:09:19.76 bitrate=N/A speed=18.4x    frame=13677 fps=442 q=-0.0 size=N/A time=00:09:30.44 bitrate=N/A speed=18.4x    frame=13923 fps=443 q=-0.0 size=N/A time=00:09:40.70 bitrate=N/A speed=18.5x    frame=14115 fps=441 q=-0.0 size=N/A time=00:09:48.71 bitrate=N/A speed=18.4x    frame=14301 fps=440 q=-0.0 size=N/A time=00:09:56.47 bitrate=N/A speed=18.4x    frame=14535 fps=440 q=-0.0 size=N/A time=00:10:06.23 bitrate=N/A speed=18.4x    frame=14789 fps=441 q=-0.0 size=N/A time=00:10:16.86 bitrate=N/A speed=18.4x    frame=15055 fps=442 q=-0.0 size=N/A time=00:10:27.91 bitrate=N/A speed=18.5x    frame=15339 fps=444 q=-0.0 size=N/A time=00:10:39.76 bitrate=N/A speed=18.5x    frame=15599 fps=445 q=-0.0 size=N/A time=00:10:50.60 bitrate=N/A speed=18.6x    frame=15818 fps=445 q=-0.0 size=N/A time=00:10:59.74 bitrate=N/A speed=18.5x    frame=16067 fps=445 q=-0.0 size=N/A time=00:11:10.12 bitrate=N/A speed=18.6x    frame=16279 fps=445 q=-0.0 size=N/A time=00:11:18.96 bitrate=N/A speed=18.6x    frame=16494 fps=444 q=-0.0 size=N/A time=00:11:27.93 bitrate=N/A speed=18.5x    frame=16671 fps=443 q=-0.0 size=N/A time=00:11:35.31 bitrate=N/A speed=18.5x    frame=16890 fps=443 q=-0.0 size=N/A time=00:11:44.45 bitrate=N/A speed=18.5x    frame=17135 fps=443 q=-0.0 size=N/A time=00:11:54.67 bitrate=N/A speed=18.5x    frame=17373 fps=443 q=-0.0 size=N/A time=00:12:04.59 bitrate=N/A speed=18.5x    frame=17617 fps=444 q=-0.0 size=N/A time=00:12:14.77 bitrate=N/A speed=18.5x    frame=17832 fps=443 q=-0.0 size=N/A time=00:12:23.74 bitrate=N/A speed=18.5x    frame=18047 fps=443 q=-0.0 size=N/A time=00:12:32.71 bitrate=N/A speed=18.5x    frame=18246 fps=442 q=-0.0 size=N/A time=00:12:41.01 bitrate=N/A speed=18.5x    frame=18484 fps=443 q=-0.0 size=N/A time=00:12:50.93 bitrate=N/A speed=18.5x    frame=18729 fps=443 q=-0.0 size=N/A time=00:13:01.15 bitrate=N/A speed=18.5x    frame=18958 fps=443 q=-0.0 size=N/A time=00:13:10.70 bitrate=N/A speed=18.5x    frame=19208 fps=443 q=-0.0 size=N/A time=00:13:21.13 bitrate=N/A speed=18.5x    frame=19385 fps=442 q=-0.0 size=N/A time=00:13:28.51 bitrate=N/A speed=18.4x    frame=19584 fps=442 q=-0.0 size=N/A time=00:13:36.81 bitrate=N/A speed=18.4x    frame=19804 fps=441 q=-0.0 size=N/A time=00:13:45.99 bitrate=N/A speed=18.4x    frame=20030 fps=441 q=-0.0 size=N/A time=00:13:55.41 bitrate=N/A speed=18.4x    frame=20292 fps=442 q=-0.0 size=N/A time=00:14:06.34 bitrate=N/A speed=18.4x    frame=20551 fps=443 q=-0.0 size=N/A time=00:14:17.14 bitrate=N/A speed=18.5x    frame=20786 fps=443 q=-0.0 size=N/A time=00:14:26.94 bitrate=N/A speed=18.5x    frame=21041 fps=443 q=-0.0 size=N/A time=00:14:37.58 bitrate=N/A speed=18.5x    frame=21286 fps=444 q=-0.0 size=N/A time=00:14:47.80 bitrate=N/A speed=18.5x    frame=21543 fps=445 q=-0.0 size=N/A time=00:14:58.52 bitrate=N/A speed=18.5x    frame=21802 fps=445 q=-0.0 size=N/A time=00:15:09.32 bitrate=N/A speed=18.6x    frame=22007 fps=445 q=-0.0 size=N/A time=00:15:17.87 bitrate=N/A speed=18.5x    frame=22234 fps=445 q=-0.0 size=N/A time=00:15:27.34 bitrate=N/A speed=18.5x    frame=22450 fps=444 q=-0.0 size=N/A time=00:15:36.35 bitrate=N/A speed=18.5x    frame=22674 fps=444 q=-0.0 size=N/A time=00:15:45.69 bitrate=N/A speed=18.5x    frame=22882 fps=444 q=-0.0 size=N/A time=00:15:54.37 bitrate=N/A speed=18.5x    frame=23130 fps=444 q=-0.0 size=N/A time=00:16:04.71 bitrate=N/A speed=18.5x    frame=23376 fps=444 q=-0.0 size=N/A time=00:16:14.97 bitrate=N/A speed=18.5x    frame=23550 fps=443 q=-0.0 size=N/A time=00:16:22.23 bitrate=N/A speed=18.5x    frame=23753 fps=443 q=-0.0 size=N/A time=00:16:30.69 bitrate=N/A speed=18.5x    frame=23967 fps=443 q=-0.0 size=N/A time=00:16:39.62 bitrate=N/A speed=18.5x    frame=24175 fps=442 q=-0.0 size=N/A time=00:16:48.29 bitrate=N/A speed=18.4x    frame=24392 fps=442 q=-0.0 size=N/A time=00:16:57.34 bitrate=N/A speed=18.4x    frame=24615 fps=442 q=-0.0 size=N/A time=00:17:06.65 bitrate=N/A speed=18.4x    frame=24788 fps=441 q=-0.0 size=N/A time=00:17:13.86 bitrate=N/A speed=18.4x    frame=24990 fps=440 q=-0.0 size=N/A time=00:17:22.29 bitrate=N/A speed=18.4x    frame=25238 fps=441 q=-0.0 size=N/A time=00:17:32.63 bitrate=N/A speed=18.4x    frame=25450 fps=441 q=-0.0 size=N/A time=00:17:41.47 bitrate=N/A speed=18.4x    frame=25715 fps=441 q=-0.0 size=N/A time=00:17:52.52 bitrate=N/A speed=18.4x    frame=25986 fps=442 q=-0.0 size=N/A time=00:18:03.83 bitrate=N/A speed=18.4x    frame=26247 fps=443 q=-0.0 size=N/A time=00:18:14.71 bitrate=N/A speed=18.5x    frame=26504 fps=443 q=-0.0 size=N/A time=00:18:25.43 bitrate=N/A speed=18.5x    frame=26751 fps=443 q=-0.0 size=N/A time=00:18:35.73 bitrate=N/A speed=18.5x    frame=26989 fps=443 q=-0.0 size=N/A time=00:18:45.66 bitrate=N/A speed=18.5x    frame=27238 fps=444 q=-0.0 size=N/A time=00:18:56.05 bitrate=N/A speed=18.5x    frame=27484 fps=444 q=-0.0 size=N/A time=00:19:06.31 bitrate=N/A speed=18.5x    frame=27709 fps=444 q=-0.0 size=N/A time=00:19:15.69 bitrate=N/A speed=18.5x    frame=27943 fps=444 q=-0.0 size=N/A time=00:19:25.45 bitrate=N/A speed=18.5x    frame=28219 fps=445 q=-0.0 size=N/A time=00:19:36.96 bitrate=N/A speed=18.6x    frame=28500 fps=446 q=-0.0 size=N/A time=00:19:48.68 bitrate=N/A speed=18.6x    frame=28723 fps=446 q=-0.0 size=N/A time=00:19:57.98 bitrate=N/A speed=18.6x    frame=28950 fps=446 q=-0.0 size=N/A time=00:20:07.45 bitrate=N/A speed=18.6x    frame=29216 fps=446 q=-0.0 size=N/A time=00:20:18.55 bitrate=N/A speed=18.6x    frame=29417 fps=446 q=-0.0 size=N/A time=00:20:26.93 bitrate=N/A speed=18.6x    frame=29630 fps=445 q=-0.0 size=N/A time=00:20:35.81 bitrate=N/A speed=18.6x    frame=29874 fps=446 q=-0.0 size=N/A time=00:20:45.99 bitrate=N/A speed=18.6x    frame=30127 fps=446 q=-0.0 size=N/A time=00:20:56.54 bitrate=N/A speed=18.6x    frame=30387 fps=446 q=-0.0 size=N/A time=00:21:07.39 bitrate=N/A speed=18.6x    frame=30635 fps=447 q=-0.0 size=N/A time=00:21:17.73 bitrate=N/A speed=18.6x    frame=30892 fps=447 q=-0.0 size=N/A time=00:21:28.45 bitrate=N/A speed=18.6x    frame=31143 fps=447 q=-0.0 size=N/A time=00:21:38.92 bitrate=N/A speed=18.7x    frame=31403 fps=448 q=-0.0 size=N/A time=00:21:49.76 bitrate=N/A speed=18.7x    frame=31654 fps=448 q=-0.0 size=N/A time=00:22:00.23 bitrate=N/A speed=18.7x    frame=31922 fps=448 q=-0.0 size=N/A time=00:22:11.41 bitrate=N/A speed=18.7x    frame=32146 fps=448 q=-0.0 size=N/A time=00:22:20.75 bitrate=N/A speed=18.7x    frame=32335 fps=448 q=-0.0 size=N/A time=00:22:28.63 bitrate=N/A speed=18.7x    frame=32544 fps=448 q=-0.0 size=N/A time=00:22:37.35 bitrate=N/A speed=18.7x    frame=32754 fps=447 q=-0.0 size=N/A time=00:22:46.11 bitrate=N/A speed=18.7x    frame=32979 fps=447 q=-0.0 size=N/A time=00:22:55.49 bitrate=N/A speed=18.7x    frame=33200 fps=447 q=-0.0 size=N/A time=00:23:04.71 bitrate=N/A speed=18.6x    frame=33423 fps=447 q=-0.0 size=N/A time=00:23:14.01 bitrate=N/A speed=18.6x    frame=33622 fps=447 q=-0.0 size=N/A time=00:23:22.31 bitrate=N/A speed=18.6x    frame=33807 fps=446 q=-0.0 size=N/A time=00:23:30.03 bitrate=N/A speed=18.6x    frame=34000 fps=445 q=-0.0 size=N/A time=00:23:38.08 bitrate=N/A speed=18.6x    [Parsed_ssim_10 @ 0000023051144300] SSIM Y:0.993105 (21.614624) U:0.993870 (22.125537) V:0.993776 (22.059325) All:0.993344 (21.768086)
[out#0/null @ 000002304ee5ca80] video:14670KiB audio:267564KiB subtitle:0KiB other streams:0KiB global headers:0KiB muxing overhead: unknown
frame=34141 fps=445 q=-0.0 Lsize=N/A time=00:23:43.96 bitrate=N/A speed=18.6x    
